<svg width="800" height="800" viewBox="0 0 800 800" fill="none" xmlns="http://www.w3.org/2000/svg">
<g clip-path="url(#clip0_337_26)">
<path d="M789.21 636.132L469.952 83.1371C455.568 58.2246 428.763 42.748 399.993 42.748C371.224 42.748 344.443 58.2246 330.07 83.1371L10.7883 636.107C-3.59609 661.02 -3.59609 691.961 10.7883 716.873C25.1727 741.786 51.9664 757.251 80.7227 757.251H719.276C748.034 757.251 774.851 741.787 789.212 716.873C803.596 691.961 803.596 661.02 789.21 636.132ZM400.005 666.307C372.399 666.307 349.985 643.917 349.985 616.301C349.985 588.695 372.399 566.306 400.005 566.306C427.61 566.306 450.001 588.695 450.001 616.301C450.001 643.918 427.61 666.307 400.005 666.307ZM430.812 506.267C430.812 523.282 417.009 537.062 400.005 537.062C382.977 537.062 369.198 523.284 369.198 506.267L349.985 280.136C349.985 252.517 372.399 230.128 400.005 230.128C427.61 230.128 450.001 252.518 450.001 280.136L430.812 506.267Z" fill="#E8B988"/>
</g>
<defs>
<clipPath id="clip0_337_26">
<rect width="800" height="800" fill="white"/>
</clipPath>
</defs>
</svg>
