<svg width="800" height="715" viewBox="0 0 800 715" fill="none" xmlns="http://www.w3.org/2000/svg">
<path d="M789.21 593.384L469.952 40.3891C455.568 15.4766 428.763 0 399.993 0C371.224 0 344.443 15.4766 330.07 40.3891L10.7883 593.359C-3.59609 618.272 -3.59609 649.213 10.7883 674.125C25.1727 699.038 51.9664 714.503 80.7227 714.503H719.276C748.034 714.503 774.851 699.039 789.212 674.125C803.596 649.213 803.596 618.272 789.21 593.384ZM400.005 623.559C372.399 623.559 349.985 601.169 349.985 573.553C349.985 545.947 372.399 523.558 400.005 523.558C427.61 523.558 450.001 545.947 450.001 573.553C450.001 601.17 427.61 623.559 400.005 623.559ZM430.812 463.519C430.812 480.534 417.009 494.314 400.005 494.314C382.977 494.314 369.198 480.536 369.198 463.519L349.985 237.388C349.985 209.769 372.399 187.38 400.005 187.38C427.61 187.38 450.001 209.77 450.001 237.388L430.812 463.519Z" fill="#A6B0C3"/>
</svg>
